# xmcd
#
# Track frame offsets: 
#        150
#        15527
#        29052
#        41682
#        56015
#        72382
#        90345
#        102402
#        120642
#        134185
#
# Disc length: 2012 seconds
#
# Revision: 4
# Processed by: cddbd v1.5.2PL0 Copyright (c) Steve Scherf et al.
# Submitted via: ExactAudioCopy v0.99pb5
#
DISCID=8f07da0a
DTITLE=Highway 101 - The New Frontier
DYEAR=1993
DGENRE=Country
TTITLE0=You Baby You
TTITLE1=Home On The Range
TTITLE2=Tell Me More
TTITLE3=No Chance To Dance
TTITLE4=Who's Gonna Love You
TTITLE5=The Last Frontier
TTITLE6=Fastest Healin' Broken Heart
TTITLE7=Love Walks
TTITLE8=You Are What You Do
TTITLE9=I Wonder Where The Love Goes
EXTD=
EXTT0=
EXTT1=
EXTT2=
EXTT3=
EXTT4=
EXTT5=
EXTT6=
EXTT7=
EXTT8=
EXTT9=
PLAYORDER=
